<?xml version="1.0" encoding="utf-8"?>
<!-- Generator: Adobe Illustrator 16.0.0, SVG Export Plug-In . SVG Version: 6.00 Build 0)  -->
<!DOCTYPE svg PUBLIC "-//W3C//DTD SVG 1.1//EN" "http://www.w3.org/Graphics/SVG/1.1/DTD/svg11.dtd">
<svg version="1.1" id="Layer_1" xmlns="http://www.w3.org/2000/svg" xmlns:xlink="http://www.w3.org/1999/xlink" x="0px" y="0px"
	 width="10px" height="10px" viewBox="0 0 10 10" enable-background="new 0 0 10 10" xml:space="preserve">
<g>
	<path fill="#3D82C4" d="M6.619,9.898c-0.279,0-0.535-0.175-0.633-0.437L5.72,8.76c-0.082,0.004-0.163,0.007-0.24,0.007H4.447
		c-2.138,0-3.879-1.728-3.879-3.851V3.89c0-2.125,1.741-3.853,3.879-3.853h1.032c2.14,0,3.88,1.728,3.88,3.852v1.025
		c0,1.249-0.606,2.412-1.624,3.136L7.26,9.442C7.167,9.711,6.915,9.894,6.63,9.898H6.619L6.619,9.898z M6.146,8.071l0.439,1.168
		c0.007,0.013,0.02,0.022,0.034,0.022v0.319V9.262c0.015,0,0.026-0.01,0.032-0.023l0.546-1.594l0.088-0.06
		c0.897-0.601,1.434-1.598,1.434-2.669V3.89c0-1.773-1.454-3.216-3.239-3.216H4.447c-1.786,0-3.238,1.443-3.238,3.216v1.025
		c0,1.772,1.452,3.216,3.238,3.216h1.032c0.132,0,0.272-0.01,0.413-0.027L6.146,8.071z"/>
</g>
<path fill="#3D82C4" d="M5.398,4.102V2.144C5.396,2.069,5.335,2.008,5.261,2.007l-0.516,0c-0.074,0-0.136,0.061-0.136,0.137v1.958
	l-1.958,0c-0.076,0-0.137,0.061-0.137,0.137v0.515c0,0.076,0.062,0.136,0.137,0.137L4.61,4.889v1.958
	c0,0.076,0.062,0.135,0.136,0.137h0.516c0.075,0,0.135-0.061,0.137-0.137L5.396,4.889l1.96,0.001
	c0.074-0.001,0.135-0.062,0.135-0.137V4.238c0-0.075-0.061-0.135-0.135-0.136H5.398z"/>
</svg>
