<?xml version="1.0" encoding="utf-8"?>
<!-- Generator: Adobe Illustrator 16.0.0, SVG Export Plug-In . SVG Version: 6.00 Build 0)  -->
<!DOCTYPE svg PUBLIC "-//W3C//DTD SVG 1.1//EN" "http://www.w3.org/Graphics/SVG/1.1/DTD/svg11.dtd">
<svg version="1.1" id="Layer_1" xmlns="http://www.w3.org/2000/svg" xmlns:xlink="http://www.w3.org/1999/xlink" x="0px" y="0px"
	 width="10px" height="10px" viewBox="0 0 10 10" enable-background="new 0 0 10 10" xml:space="preserve">
<path fill="#FFFFFF" d="M5.381,6.968C5.168,6.874,4.58,6.716,4.51,6.448C4.398,6.025,4.821,5.704,5.008,5.37
	c0.198-0.352,0.363-0.827,0.393-1.225c0.115-1.425-0.758-2.26-2.012-2.116C2.477,2.133,1.933,2.813,1.874,3.69
	c-0.06,0.891,0.272,1.548,0.623,2.034C2.65,5.934,2.811,6.07,2.787,6.326c-0.028,0.3-0.35,0.383-0.58,0.475
	C1.934,6.911,1.64,7.076,1.501,7.153C0.868,7.508-0.004,8.161,0.517,8.997c0.351,0.56,1.065,0.67,1.668,0.725
	c0.843,0.079,1.688,0.152,2.534,0.084c0.64-0.052,1.633-0.125,2.05-0.7c0.168-0.233,0.192-0.712,0.105-0.979
	C6.684,7.562,5.924,7.206,5.381,6.968z"/>
<path fill="#FFFFFF" d="M8.056,1.95V0.107C8.055,0.037,7.998-0.02,7.929-0.021l-0.485,0c-0.07,0-0.13,0.057-0.13,0.129V1.95h-1.84
	c-0.071,0-0.13,0.057-0.13,0.128v0.484c0,0.071,0.059,0.128,0.13,0.129l1.84,0v1.843c0,0.071,0.06,0.127,0.13,0.128h0.485
	c0.069,0,0.126-0.057,0.127-0.128L8.055,2.691l1.845,0c0.069,0,0.127-0.058,0.127-0.128V2.078c0-0.071-0.058-0.126-0.127-0.128
	H8.056z"/>
</svg>
