<?xml version="1.0" encoding="utf-8"?>
<!-- Generator: Adobe Illustrator 16.0.0, SVG Export Plug-In . SVG Version: 6.00 Build 0)  -->
<!DOCTYPE svg PUBLIC "-//W3C//DTD SVG 1.1//EN" "http://www.w3.org/Graphics/SVG/1.1/DTD/svg11.dtd">
<svg version="1.1" id="Layer_1" xmlns="http://www.w3.org/2000/svg" xmlns:xlink="http://www.w3.org/1999/xlink" x="0px" y="0px"
	 width="20.984px" height="8px" viewBox="-3.984 0 20.984 8" enable-background="new -3.984 0 20.984 8" xml:space="preserve">
<g id="Layer_2">
	<path fill="#EF5451" d="M10.063,6.941c0,0-2.987-2.59-0.119-5.883H2.207c0,0-3.084-0.167-3.189,2.942
		c-0.105,3.109,2.504,2.921,3.27,3.031C3.053,7.141,10.063,6.941,10.063,6.941z"/>
	<path fill="#49B74A" d="M15.079,0.672"/>
</g>
<path fill="#010101" d="M2.208,7.947h10.025c0.906,0,1.742-0.278,2.431-0.741C14.756,7.145,14.839,7.068,14.926,7
	c0.107-0.084,0.217-0.166,0.315-0.26c0.089-0.086,0.163-0.184,0.243-0.277c0.09-0.102,0.182-0.201,0.259-0.313
	c0.043-0.063,0.075-0.133,0.114-0.197c0.096-0.158,0.189-0.316,0.265-0.486c0.003-0.009,0.005-0.018,0.008-0.027
	c0.188-0.446,0.3-0.93,0.3-1.439c0-0.008-0.002-0.016-0.002-0.025c0-0.008,0.002-0.017,0.002-0.025c0-2.148-1.748-3.896-3.896-3.896
	c-0.051,0-0.098,0.013-0.146,0.015c-0.052-0.002-0.102-0.015-0.152-0.015H2.209c-2.314,0-4.194,1.77-4.194,3.947
	C-1.987,6.176-0.107,7.947,2.208,7.947z M12.387,1.072c1.678,0.077,3.018,1.343,3.031,2.903c-0.003,0.388-0.082,0.759-0.223,1.097
	c0,0.002,0,0.002-0.002,0.003c-0.055,0.132-0.131,0.257-0.205,0.38c-0.027,0.042-0.049,0.09-0.08,0.133
	c-0.061,0.087-0.133,0.167-0.203,0.246c-0.057,0.066-0.111,0.135-0.174,0.195c-0.078,0.074-0.164,0.141-0.249,0.205
	c-0.058,0.047-0.116,0.094-0.177,0.135c-0.455,0.298-0.994,0.473-1.576,0.473c-1.594,0-2.891-1.297-2.891-2.89
	C9.639,2.406,10.859,1.149,12.387,1.072z M2.208,1.059h7.738C9.148,1.773,8.635,2.799,8.635,3.95c0,1.209,0.564,2.276,1.43,2.991
	H2.208c-1.761,0-3.19-1.318-3.19-2.941C-0.982,2.38,0.447,1.059,2.208,1.059z"/>
</svg>
