<?xml version="1.0" encoding="utf-8"?>
<!-- Generator: Adobe Illustrator 16.0.0, SVG Export Plug-In . SVG Version: 6.00 Build 0)  -->
<!DOCTYPE svg PUBLIC "-//W3C//DTD SVG 1.1//EN" "http://www.w3.org/Graphics/SVG/1.1/DTD/svg11.dtd">
<svg version="1.1" id="Layer_1" xmlns="http://www.w3.org/2000/svg" xmlns:xlink="http://www.w3.org/1999/xlink" x="0px" y="0px"
	 width="15px" height="15px" viewBox="0 0 15 15" enable-background="new 0 0 15 15" xml:space="preserve">
<path display="none" fill="#010101" d="M5.857,8.166C5.833,8.153,5.809,8.14,5.79,8.127C5.667,8.05,5.56,7.803,5.546,7.638
	C5.543,7.604,5.541,7.538,5.541,7.513c0.02-0.032,0.065-0.096,0.093-0.131C5.708,7.29,5.788,7.171,5.868,7.038
	C5.8,6.942,5.732,6.833,5.665,6.714c-0.09,0.168-0.186,0.317-0.27,0.422C5.381,7.154,5.257,7.31,5.233,7.397
	C5.209,7.485,5.224,7.653,5.225,7.674c0.019,0.223,0.133,0.519,0.312,0.697c0.108-0.056,0.196-0.101,0.255-0.142
	C5.813,8.217,5.835,8.193,5.857,8.166z M2.118,12.587c-1.281-0.152-1.644-0.411-1.728-0.495c0.019-0.3,0.07-1.714,0.154-1.982
	c0.111-0.355,0.241-0.509,0.413-0.64c0.086-0.065,0.549-0.263,0.958-0.438c0.52-0.22,1.058-0.449,1.268-0.586
	c0.233-0.149,0.383-0.509,0.406-0.772c0-0.009,0.016-0.187-0.008-0.277C3.568,7.348,3.545,7.3,3.513,7.25L3.499,7.232
	C3.479,7.208,3.423,7.139,3.418,7.135C3.223,6.891,2.962,6.42,2.855,5.964C2.707,5.333,2.589,4.057,3.092,3.288
	C3.365,2.867,3.8,2.644,4.381,2.622l0.02-0.001l0.032,0.001C4.714,2.633,4.96,2.692,5.17,2.795C5.199,2.677,5.232,2.56,5.273,2.447
	C5.073,2.35,4.849,2.29,4.599,2.266V2.25L4.401,2.252L4.377,2.251L4.215,2.254v0.012C3.607,2.324,3.142,2.593,2.833,3.069
	C2.125,4.155,2.499,5.868,2.543,6.06c0.122,0.517,0.407,1.038,0.641,1.327c0.012,0.015,0.053,0.065,0.077,0.092
	c0.007,0.011,0.01,0.018,0.01,0.018c0.002,0.027,0,0.103-0.002,0.141C3.254,7.803,3.146,8.05,3.024,8.127
	C2.835,8.249,2.287,8.481,1.803,8.69C1.241,8.928,0.891,9.078,0.779,9.164c-0.262,0.2-0.418,0.437-0.539,0.822
	c-0.125,0.4-0.174,2.114-0.175,2.154L0.063,12.18l0.011,0.033c0.047,0.15,0.333,0.545,2.018,0.742
	C2.097,12.874,2.105,12.743,2.118,12.587z M6.243,6.978c0.093,0.117,0.161,0.211,0.188,0.298C6.539,7.622,6.223,8.375,5.952,8.55
	c-0.263,0.171-0.938,0.458-1.59,0.735c-0.517,0.22-1.103,0.469-1.216,0.554c-0.224,0.17-0.392,0.368-0.536,0.831
	c-0.123,0.391-0.184,2.096-0.197,2.335c0.098,0.109,0.872,0.787,5.101,0.787c4.114,0,4.963-0.653,5.1-0.796
	c-0.016-0.259-0.076-1.941-0.197-2.326c-0.145-0.463-0.313-0.661-0.535-0.831c-0.113-0.085-0.699-0.334-1.217-0.554
	c-0.65-0.277-1.326-0.564-1.588-0.735C8.768,8.353,8.58,7.587,8.588,7.332C8.59,7.254,8.617,7.184,8.787,6.973
	c0.252-0.314,0.584-0.914,0.721-1.496C9.695,4.673,9.844,3.05,9.203,2.066C8.85,1.524,8.291,1.236,7.548,1.208L7.503,1.207
	L7.479,1.208C6.733,1.236,6.176,1.524,5.823,2.066C5.181,3.05,5.33,4.673,5.519,5.477c0.137,0.582,0.468,1.182,0.718,1.495
	 M9.207,8.127c0.061,0.039,0.148,0.088,0.256,0.141c0.178-0.177,0.293-0.472,0.313-0.696c0.002-0.019,0.016-0.189-0.008-0.277
	c-0.023-0.086-0.146-0.244-0.16-0.262C9.521,6.928,9.426,6.781,9.336,6.612C9.268,6.73,9.199,6.837,9.135,6.935
	c0.076,0.134,0.158,0.253,0.232,0.346C9.395,7.314,9.439,7.378,9.459,7.41c0,0.026-0.002,0.092-0.004,0.125
	C9.441,7.702,9.332,7.946,9.209,8.024C9.191,8.038,9.168,8.052,9.145,8.065C9.166,8.091,9.188,8.114,9.207,8.127z M12.908,12.854
	c1.686-0.198,1.973-0.596,2.02-0.745l0.01-0.032l-0.002-0.04C14.934,12,14.885,10.284,14.76,9.884
	c-0.119-0.387-0.277-0.625-0.537-0.823c-0.111-0.085-0.463-0.236-1.025-0.474c-0.482-0.208-1.033-0.44-1.223-0.563
	c-0.121-0.078-0.229-0.323-0.242-0.49c-0.004-0.037-0.006-0.113-0.004-0.139c0.002,0,0.006-0.008,0.012-0.019
	c0.023-0.028,0.066-0.077,0.076-0.092c0.232-0.291,0.52-0.811,0.641-1.329c0.043-0.191,0.418-1.903-0.291-2.99
	c-0.307-0.475-0.771-0.745-1.379-0.803V2.151l-0.164-0.002L10.6,2.151L10.4,2.148v0.015c-0.25,0.024-0.473,0.085-0.674,0.18
	c0.041,0.115,0.074,0.23,0.105,0.35c0.211-0.105,0.453-0.163,0.734-0.173L10.6,2.519l0.02,0.002
	c0.582,0.021,1.014,0.244,1.289,0.666c0.502,0.768,0.387,2.043,0.236,2.676c-0.107,0.455-0.365,0.926-0.564,1.17
	c-0.004,0.006-0.061,0.074-0.08,0.099l-0.014,0.017c-0.031,0.047-0.053,0.098-0.066,0.146c-0.025,0.089-0.008,0.27-0.008,0.277
	c0.023,0.263,0.17,0.622,0.406,0.773c0.209,0.135,0.746,0.365,1.266,0.588c0.408,0.172,0.871,0.368,0.959,0.436
	c0.174,0.129,0.301,0.282,0.414,0.638c0.084,0.269,0.137,1.683,0.152,1.983c-0.082,0.083-0.445,0.341-1.727,0.494
	C12.895,12.64,12.904,12.77,12.908,12.854z"/>
<path fill="#3D82C4" d="M8.215,7.099L8.143,6.614c0.303-0.246,0.599-0.712,0.733-1.586c0.246-0.497,0-0.8,0-0.8V3.479
	C8.873,3.459,8.867,3.443,8.864,3.424C8.85,3.199,8.821,2.966,8.761,2.753C8.554,2.495,8.222,2.096,7.408,2.057
	C6.843,2.033,6.279,2.263,6.041,2.474C5.93,2.675,5.86,2.923,5.816,3.174C5.791,3.257,5.767,3.343,5.749,3.44v0.747
	c0,0-0.246,0.305,0,0.803c0.131,0.844,0.414,1.307,0.708,1.562l-0.04,0.522C6.233,7.186,5.677,7.521,5.122,7.886
	C4.487,7.505,3.796,7.217,3.796,7.217L3.732,6.786c0.229-0.188,0.456-0.544,0.559-1.21c0.075-0.151,0.088-0.388,0.077-0.56
	C4.39,4.795,4.432,4.188,4.299,3.707c-0.168-0.21-0.44-0.534-1.101-0.566c-0.46-0.021-0.92,0.167-1.114,0.339
	C1.859,3.888,1.838,4.524,1.851,4.883c-0.032,0.174-0.045,0.46,0.055,0.662c0.1,0.645,0.316,0.996,0.54,1.19L2.409,7.217
	c0,0-1.557,0.852-1.9,1.23c-0.32,0.351-0.593,1.392-0.354,1.831c0.787,0.469,1.786,0.792,2.839,0.853
	c-0.104-0.661,0.204-1.696,0.56-2.09c0.122-0.132,0.364-0.315,0.649-0.506C4.074,8.635,3.966,8.727,3.899,8.8
	c-0.419,0.461-0.777,1.827-0.464,2.404c2.15,1.283,5.503,1.737,8.201-0.053c0.195-0.439-0.174-1.523-0.382-1.957
	C10.781,8.355,9.048,7.308,8.215,7.099z"/>
<path fill="#3D82C4" d="M14.556,8.509c-0.345-0.38-1.901-1.231-1.901-1.231l-0.037-0.482c0.224-0.192,0.44-0.544,0.541-1.189
	c0.099-0.203,0.086-0.489,0.054-0.663c0.013-0.359-0.008-0.995-0.232-1.403c-0.194-0.172-0.654-0.36-1.116-0.34
	c-0.659,0.033-0.932,0.356-1.099,0.565c-0.133,0.483-0.091,1.089-0.07,1.311c-0.01,0.171,0.003,0.409,0.078,0.56
	c0.103,0.666,0.329,1.021,0.559,1.21l-0.063,0.431c0,0-0.737,0.309-1.385,0.706c0.614,0.363,1.373,0.843,1.627,1.119
	c0.355,0.393,0.663,1.429,0.56,2.088c1.054-0.059,2.053-0.381,2.839-0.853C15.148,9.901,14.874,8.861,14.556,8.509z"/>
</svg>
