<?xml version="1.0" encoding="utf-8"?>
<!-- Generator: Adobe Illustrator 16.0.0, SVG Export Plug-In . SVG Version: 6.00 Build 0)  -->
<!DOCTYPE svg PUBLIC "-//W3C//DTD SVG 1.1//EN" "http://www.w3.org/Graphics/SVG/1.1/DTD/svg11.dtd">
<svg version="1.1" id="Layer_1" xmlns="http://www.w3.org/2000/svg" xmlns:xlink="http://www.w3.org/1999/xlink" x="0px" y="0px"
	 width="20.984px" height="8px" viewBox="-3.984 0 20.984 8" enable-background="new -3.984 0 20.984 8" xml:space="preserve">
<g id="Layer_2">
	<path fill="#4CAF50" d="M12.158,7.031c0.766-0.11,3.375,0.078,3.27-3.031c-0.105-3.109-3.189-2.942-3.189-2.942H4.502
		C7.37,4.351,4.383,6.941,4.383,6.941S11.393,7.141,12.158,7.031z"/>
	<path fill="#49B74A" d="M-0.634,0.672"/>
</g>
<path fill="#010101" d="M16.43,4.001c0-2.177-1.88-3.947-4.193-3.947H2.211c-0.051,0-0.101,0.013-0.152,0.015
	C2.01,0.067,1.963,0.054,1.912,0.054c-2.148,0-3.896,1.748-3.896,3.896c0,0.008,0.002,0.017,0.002,0.025
	c0,0.009-0.002,0.017-0.002,0.025c0,0.51,0.111,0.993,0.3,1.439c0.003,0.01,0.005,0.019,0.008,0.027
	c0.075,0.17,0.169,0.328,0.265,0.486c0.039,0.064,0.071,0.134,0.114,0.197c0.077,0.111,0.169,0.211,0.259,0.313
	c0.08,0.094,0.154,0.191,0.243,0.277C-0.697,6.834-0.588,6.916-0.48,7c0.087,0.068,0.17,0.145,0.263,0.206
	c0.688,0.463,1.524,0.741,2.431,0.741h10.025C14.553,7.947,16.432,6.176,16.43,4.001z M4.807,3.952c0,1.593-1.297,2.89-2.891,2.89
	c-0.582,0-1.121-0.175-1.576-0.473C0.279,6.328,0.221,6.281,0.163,6.234C0.078,6.17-0.008,6.104-0.086,6.029
	C-0.148,5.969-0.203,5.9-0.26,5.834c-0.07-0.079-0.143-0.159-0.203-0.246c-0.031-0.043-0.053-0.091-0.08-0.133
	c-0.074-0.123-0.15-0.248-0.205-0.38C-0.75,5.074-0.75,5.074-0.75,5.072c-0.141-0.338-0.22-0.709-0.223-1.097
	c0.014-1.56,1.354-2.826,3.031-2.903C3.586,1.149,4.807,2.406,4.807,3.952z M15.428,4c0,1.623-1.429,2.941-3.189,2.941H4.381
	c0.865-0.715,1.43-1.782,1.43-2.991c0-1.151-0.514-2.177-1.311-2.891h7.738C13.998,1.059,15.428,2.38,15.428,4z"/>
</svg>
