<?xml version="1.0" encoding="utf-8"?>
<!-- Generator: Adobe Illustrator 16.0.0, SVG Export Plug-In . SVG Version: 6.00 Build 0)  -->
<!DOCTYPE svg PUBLIC "-//W3C//DTD SVG 1.1//EN" "http://www.w3.org/Graphics/SVG/1.1/DTD/svg11.dtd">
<svg version="1.1" xmlns="http://www.w3.org/2000/svg" xmlns:xlink="http://www.w3.org/1999/xlink" x="0px" y="0px" width="17px"
	 height="8px" viewBox="0 0 17 8" enable-background="new 0 0 17 8" xml:space="preserve">
<g id="Layer_2">
	<path fill="#EF5451" d="M10.063,6.941c0,0-2.988-2.59-0.119-5.883h-5.18c0,0-3.084-0.167-3.189,2.942s2.504,2.921,3.27,3.031
		S10.063,6.941,10.063,6.941z"/>
	<path fill="#49B74A" d="M15.079,0.672"/>
</g>
<g id="Layer_1">
	<path fill="#010101" d="M4.765,7.947h7.468c0.906,0,1.742-0.278,2.43-0.741C14.756,7.144,14.839,7.068,14.926,7
		c0.107-0.084,0.217-0.166,0.315-0.26c0.089-0.086,0.163-0.184,0.243-0.277c0.09-0.102,0.182-0.201,0.259-0.313
		c0.043-0.063,0.075-0.133,0.114-0.197c0.096-0.158,0.19-0.316,0.265-0.486c0.003-0.009,0.005-0.018,0.008-0.027
		C16.318,4.993,16.429,4.51,16.429,4c0-0.008-0.001-0.016-0.001-0.025c0-0.008,0.001-0.017,0.001-0.025
		c0-2.148-1.747-3.896-3.896-3.896c-0.05,0-0.097,0.013-0.146,0.015c-0.052-0.002-0.102-0.015-0.153-0.015H4.767
		c-2.314,0-4.194,1.77-4.194,3.947C0.571,6.176,2.45,7.947,4.765,7.947z M12.387,1.072c1.678,0.077,3.018,1.343,3.031,2.903
		c-0.003,0.388-0.082,0.76-0.223,1.097c0,0.002,0,0.002-0.002,0.003c-0.055,0.132-0.13,0.257-0.205,0.38
		c-0.027,0.042-0.049,0.09-0.08,0.133c-0.061,0.087-0.133,0.167-0.203,0.246c-0.057,0.066-0.111,0.135-0.174,0.195
		c-0.078,0.074-0.164,0.141-0.249,0.205c-0.058,0.047-0.116,0.094-0.177,0.135c-0.455,0.298-0.994,0.473-1.576,0.473
		c-1.594,0-2.891-1.297-2.891-2.89C9.639,2.406,10.859,1.149,12.387,1.072z M4.765,1.059h5.18c-0.796,0.714-1.31,1.74-1.31,2.891
		c0,1.209,0.564,2.277,1.429,2.992H4.765C3.004,6.941,1.575,5.623,1.575,4C1.575,2.38,3.005,1.059,4.765,1.059z"/>
	<path fill="#010101" d="M12.53,5.632c0.844,0,1.529-0.685,1.529-1.529c0-0.842-0.686-1.531-1.529-1.531
		c-0.843,0-1.528,0.687-1.528,1.531C11.002,4.947,11.688,5.632,12.53,5.632z M12.53,3.579c0.289,0,0.524,0.234,0.524,0.525
		c0,0.289-0.235,0.522-0.524,0.522c-0.29,0-0.523-0.234-0.523-0.522C12.007,3.815,12.24,3.579,12.53,3.579z"/>
	<circle fill="#EF5451" cx="12.53" cy="4.102" r="0.563"/>
</g>
</svg>
