<?xml version="1.0" encoding="utf-8"?>
<!-- Generator: Adobe Illustrator 16.0.0, SVG Export Plug-In . SVG Version: 6.00 Build 0)  -->
<!DOCTYPE svg PUBLIC "-//W3C//DTD SVG 1.1//EN" "http://www.w3.org/Graphics/SVG/1.1/DTD/svg11.dtd">
<svg version="1.1" xmlns="http://www.w3.org/2000/svg" xmlns:xlink="http://www.w3.org/1999/xlink" x="0px" y="0px" width="17px"
	 height="8px" viewBox="0 0 17 8" enable-background="new 0 0 17 8" xml:space="preserve">
<g id="Layer_2">
	<path fill="#4DAF4E" d="M6.938,1.058c0,0,2.988,2.59,0.119,5.883h5.18c0,0,3.084,0.167,3.189-2.942s-2.504-2.921-3.27-3.031
		S6.938,1.058,6.938,1.058z"/>
	<path fill="#49B74A" d="M1.922,7.328"/>
</g>
<g id="Layer_1">
	<path fill="#010101" d="M12.236,0.053H4.769c-0.907,0-1.743,0.278-2.43,0.741C2.245,0.856,2.162,0.931,2.075,1
		C1.968,1.084,1.858,1.166,1.76,1.259C1.671,1.346,1.596,1.443,1.517,1.537C1.427,1.639,1.335,1.739,1.258,1.85
		C1.215,1.913,1.183,1.983,1.143,2.046c-0.096,0.159-0.19,0.317-0.264,0.486C0.875,2.542,0.875,2.551,0.871,2.561
		C0.683,3.007,0.572,3.49,0.572,4c0,0.008,0.001,0.016,0.001,0.025c0,0.008-0.001,0.017-0.001,0.025
		c0,2.148,1.747,3.896,3.896,3.896c0.049,0,0.096-0.013,0.145-0.015c0.052,0.002,0.102,0.015,0.154,0.015h7.467
		c2.314,0,4.194-1.77,4.194-3.947C16.43,1.824,14.551,0.053,12.236,0.053z M4.614,6.928C2.937,6.851,1.596,5.585,1.583,4.024
		c0.003-0.388,0.082-0.76,0.223-1.097c0-0.001,0-0.001,0.001-0.002c0.056-0.132,0.13-0.257,0.206-0.379
		c0.027-0.042,0.049-0.09,0.08-0.134c0.061-0.086,0.133-0.167,0.204-0.246C2.353,2.099,2.407,2.031,2.47,1.971
		c0.078-0.075,0.163-0.14,0.249-0.206C2.776,1.719,2.834,1.672,2.896,1.63C3.35,1.333,3.89,1.158,4.472,1.158
		c1.593,0,2.89,1.297,2.89,2.89C7.362,5.594,6.141,6.851,4.614,6.928z M12.236,6.941h-5.18c0.796-0.714,1.31-1.74,1.31-2.891
		c0-1.209-0.564-2.278-1.429-2.993h5.299c1.761,0,3.189,1.319,3.189,2.941C15.426,5.62,13.996,6.941,12.236,6.941z"/>
	<path fill="#010101" d="M4.471,2.368c-0.844,0-1.529,0.685-1.529,1.529c0,0.842,0.686,1.531,1.529,1.531
		C5.313,5.428,6,4.741,6,3.897C5.999,3.053,5.313,2.368,4.471,2.368z M4.471,4.421c-0.289,0-0.524-0.234-0.524-0.525
		c0-0.289,0.235-0.522,0.524-0.522c0.29,0,0.523,0.234,0.523,0.522C4.994,4.185,4.76,4.421,4.471,4.421z"/>
	<circle fill="#4DAF4E" cx="4.471" cy="3.898" r="0.563"/>
</g>
</svg>
