<?xml version="1.0" encoding="utf-8"?>
<!-- Generator: Adobe Illustrator 16.0.0, SVG Export Plug-In . SVG Version: 6.00 Build 0)  -->
<!DOCTYPE svg PUBLIC "-//W3C//DTD SVG 1.1//EN" "http://www.w3.org/Graphics/SVG/1.1/DTD/svg11.dtd">
<svg version="1.1" id="Layer_1" xmlns="http://www.w3.org/2000/svg" xmlns:xlink="http://www.w3.org/1999/xlink" x="0px" y="0px"
	 width="9px" height="12px" viewBox="0 0 9 12" enable-background="new 0 0 9 12" xml:space="preserve">
<path fill="#3D82C4" d="M4,8.329C3.833,8.256,3.374,8.133,3.319,7.924C3.232,7.593,3.562,7.342,3.708,7.081
	c0.155-0.274,0.283-0.646,0.308-0.957c0.09-1.113-0.593-1.765-1.572-1.653C1.731,4.553,1.306,5.084,1.26,5.769
	C1.213,6.465,1.472,6.979,1.746,7.357c0.12,0.164,0.246,0.271,0.227,0.471C1.951,8.063,1.7,8.127,1.52,8.199
	C1.307,8.285,1.077,8.414,0.969,8.475C0.474,8.751-0.207,9.262,0.2,9.914c0.274,0.438,0.832,0.523,1.303,0.566
	c0.658,0.062,1.319,0.119,1.979,0.065c0.5-0.04,1.276-0.098,1.601-0.547c0.132-0.183,0.151-0.556,0.083-0.765
	C5.018,8.793,4.423,8.516,4,8.329z"/>
<path fill="#3D82C4" d="M5.639,3.478c-0.189,0-0.344,0.153-0.344,0.342s0.153,0.343,0.344,0.343c0.188,0,0.342-0.154,0.342-0.343
	S5.826,3.478,5.639,3.478z M5.639,3.956c-0.076,0-0.136-0.061-0.136-0.135c0-0.074,0.06-0.135,0.136-0.135
	c0.073,0,0.135,0.061,0.135,0.135C5.771,3.895,5.712,3.956,5.639,3.956z"/>
<path fill="#3D82C4" d="M7.779,3.478c-0.188,0-0.342,0.153-0.342,0.342s0.153,0.343,0.342,0.343S8.123,4.009,8.123,3.82
	S7.969,3.478,7.779,3.478z M7.779,3.956c-0.074,0-0.135-0.061-0.135-0.135c0-0.074,0.061-0.135,0.135-0.135s0.137,0.061,0.137,0.135
	C7.916,3.895,7.854,3.956,7.779,3.956z"/>
<path fill="#3D82C4" d="M6.709,3.478c-0.189,0-0.343,0.153-0.343,0.342S6.52,4.163,6.709,4.163c0.188,0,0.343-0.154,0.343-0.343
	S6.896,3.478,6.709,3.478z M6.709,3.956c-0.075,0-0.135-0.061-0.135-0.135c0-0.074,0.06-0.135,0.135-0.135
	c0.074,0,0.135,0.061,0.135,0.135C6.844,3.895,6.783,3.956,6.709,3.956z"/>
<path fill="#3D82C4" d="M6.709,2.286c-1.232,0-2.235,0.717-2.235,1.598c0,0.393,0.197,0.765,0.559,1.057l-0.502,0.9l1.092-0.56
	C5.955,5.413,6.33,5.483,6.709,5.483c1.232,0,2.234-0.717,2.234-1.599C8.943,3.002,7.939,2.286,6.709,2.286z M6.709,5.275
	c-0.369,0-0.732-0.07-1.052-0.204L5.613,5.052L5.045,5.343l0.257-0.458L5.229,4.83C4.875,4.571,4.681,4.235,4.681,3.885
	c0-0.768,0.91-1.392,2.028-1.392c1.117,0,2.025,0.625,2.027,1.392C8.736,4.652,7.827,5.275,6.709,5.275z"/>
</svg>
