<?xml version="1.0" encoding="utf-8"?>
<!-- Generator: Adobe Illustrator 16.0.0, SVG Export Plug-In . SVG Version: 6.00 Build 0)  -->
<!DOCTYPE svg PUBLIC "-//W3C//DTD SVG 1.1//EN" "http://www.w3.org/Graphics/SVG/1.1/DTD/svg11.dtd">
<svg version="1.1" id="Layer_1" xmlns="http://www.w3.org/2000/svg" xmlns:xlink="http://www.w3.org/1999/xlink" x="0px" y="0px"
	 width="10px" height="10px" viewBox="0 0 10 10" enable-background="new 0 0 10 10" xml:space="preserve">
<path fill="#F5F5F5" d="M6.396,5l3.473-3.472C10,1.394,10,1.178,9.869,1.046L8.955,0.131c-0.135-0.132-0.35-0.132-0.484,0L5,3.604
	L1.527,0.131c-0.133-0.132-0.349-0.132-0.483,0L0.131,1.046c-0.132,0.132-0.132,0.348,0,0.481L3.604,5L0.131,8.473
	c-0.132,0.133-0.132,0.348,0,0.482l0.913,0.914C1.178,10,1.394,10,1.527,9.869L5,6.395l3.471,3.475C8.605,10,8.82,10,8.955,9.869
	l0.914-0.914C10,8.82,10,8.605,9.869,8.473L6.396,5z"/>
</svg>
