<?xml version="1.0" encoding="utf-8"?>
<!-- Generator: Adobe Illustrator 16.0.0, SVG Export Plug-In . SVG Version: 6.00 Build 0)  -->
<!DOCTYPE svg PUBLIC "-//W3C//DTD SVG 1.1//EN" "http://www.w3.org/Graphics/SVG/1.1/DTD/svg11.dtd">
<svg version="1.1" id="Layer_1" xmlns="http://www.w3.org/2000/svg" xmlns:xlink="http://www.w3.org/1999/xlink" x="0px" y="0px"
	 width="10px" height="10px" viewBox="0 0 10 10" enable-background="new 0 0 10 10" xml:space="preserve">
<g>
	<polygon fill="#F5F5F5" points="9.978,5.065 7.44,7.477 4.794,7.477 6.458,5.9 1.927,5.9 1.927,5.065 1.927,4.229 6.458,4.229 
		4.794,2.653 7.44,2.653 	"/>
	<path fill="#F5F5F5" d="M4.794,7.492H4.755l1.664-1.576H1.911V4.214h4.508L4.755,2.638h2.693l0.003,0.004L10,5.065L9.988,5.076
		L7.455,7.484c0,0.001-0.001,0.002-0.003,0.003H7.451l0,0c-0.01,0.004-0.038,0.004-0.124,0.004L4.794,7.492z M1.942,5.885h4.555
		L4.833,7.461c0.318,0,2.472,0,2.602,0l2.521-2.396L7.435,2.669H4.833l1.664,1.576H1.942V5.885z"/>
</g>
<g>
	<polygon fill="#F5F5F5" points="7.299,10.17 0,10.17 0,0 7.299,0 7.299,1.389 6.652,1.389 6.652,0.635 0.646,0.635 0.646,9.535 
		6.652,9.535 6.652,8.781 7.299,8.781 	"/>
</g>
</svg>
