<?xml version="1.0" encoding="utf-8"?>
<!-- Generator: Adobe Illustrator 16.0.0, SVG Export Plug-In . SVG Version: 6.00 Build 0)  -->
<!DOCTYPE svg PUBLIC "-//W3C//DTD SVG 1.1//EN" "http://www.w3.org/Graphics/SVG/1.1/DTD/svg11.dtd">
<svg version="1.1" id="Layer_1" xmlns="http://www.w3.org/2000/svg" xmlns:xlink="http://www.w3.org/1999/xlink" x="0px" y="0px"
	 width="10px" height="10px" viewBox="0 0 10 10" enable-background="new 0 0 10 10" xml:space="preserve">
<g display="none">
	<g display="inline">
		<path fill="#F5F5F5" d="M9.642,4.058c-0.21,0-0.381,0.169-0.381,0.38v2.585H2.999V0.762h2.679c0.211,0,0.381-0.171,0.381-0.382
			C6.059,0.169,5.889,0,5.678,0H2.617c-0.211,0-0.38,0.169-0.38,0.38v1.817H0.42c-0.211,0-0.381,0.172-0.381,0.38v7.025
			c0,0.209,0.169,0.381,0.381,0.381h7.023c0.211,0,0.382-0.172,0.382-0.381V7.786h1.816c0.21,0,0.381-0.172,0.381-0.382V4.438
			C10.022,4.228,9.852,4.058,9.642,4.058z M7.063,9.222H0.801V2.958h1.437v4.446c0,0.21,0.169,0.382,0.38,0.382h4.446V9.222z"/>
	</g>
	<g display="inline">
		<g>
			<path fill="#F5F5F5" d="M10.022,0.38v2.237c0,0.208-0.171,0.38-0.381,0.38s-0.381-0.172-0.381-0.38V1.3L6.155,4.407
				C6.08,4.48,5.98,4.518,5.885,4.518c-0.098,0-0.196-0.038-0.269-0.111c-0.15-0.149-0.15-0.39,0-0.539l3.105-3.106H7.407
				c-0.212,0-0.381-0.171-0.381-0.382C7.026,0.169,7.195,0,7.407,0h2.234c0.022,0,0.048,0.001,0.07,0.006
				c0.025,0.005,0.051,0.013,0.072,0.021c0.013,0.006,0.022,0.012,0.033,0.016c0.034,0.018,0.065,0.042,0.094,0.069
				c0.054,0.057,0.09,0.125,0.105,0.197c0.002,0.014,0.004,0.025,0.004,0.039c0.002,0,0.002,0,0,0.002
				C10.022,0.361,10.022,0.37,10.022,0.38z"/>
		</g>
		<g>
			<path fill="#F5F5F5" d="M10.022,0.38v0.037c0.001-0.023,0.001-0.045-0.002-0.068C10.022,0.361,10.022,0.37,10.022,0.38z"/>
		</g>
	</g>
</g>
<polygon fill="#FFFFFF" points="0,0 0,3.744 1.32,2.423 2.855,3.958 3.958,2.855 2.423,1.32 3.744,0 "/>
<polygon fill="#FFFFFF" points="9.984,0 6.24,0 7.56,1.32 6.026,2.855 7.128,3.959 8.664,2.423 9.984,3.744 "/>
<polygon fill="#FFFFFF" points="9.984,9.983 9.984,6.24 8.664,7.561 7.128,6.025 6.026,7.13 7.56,8.662 6.24,9.983 "/>
<polygon fill="#FFFFFF" points="0,9.983 3.744,9.983 2.423,8.662 3.958,7.128 2.855,6.025 1.32,7.561 0,6.24 "/>
</svg>
